<?xml version="1.0" standalone="no"?>
<!DOCTYPE svg PUBLIC "-//W3C//DTD SVG 1.1//EN" "http://www.w3.org/Graphics/SVG/1.1/DTD/svg11.dtd" >
<svg xmlns="http://www.w3.org/2000/svg" xmlns:xlink="http://www.w3.org/1999/xlink" version="1.1">
<metadata></metadata>
<defs>
<font id="ds-digitalbold" horiz-adv-x="844" >
<font-face units-per-em="2048" ascent="1638" descent="-410" />
<missing-glyph horiz-adv-x="392" />
<glyph unicode="&#xd;" horiz-adv-x="392" />
<glyph unicode=" "  horiz-adv-x="392" />
<glyph unicode="&#x09;" horiz-adv-x="392" />
<glyph unicode="&#xa0;" horiz-adv-x="392" />
<glyph unicode="!" horiz-adv-x="473" d="M158 -71h157v-140h-157v140zM158 157v242l99 98l58 -58v-439zM158 656v241l157 158v-439l-58 -60z" />
<glyph unicode="&#x22;" horiz-adv-x="512" d="M71 846v209h157v-209l-79 -80zM284 846v209h158v-209l-78 -80z" />
<glyph unicode="#" horiz-adv-x="1002" d="M87 345l79 79h84l79 -79l-79 -78h-84zM87 639l79 79h84l79 -79l-79 -78h-84zM279 117v120l78 78l80 -78v-120l-80 -78zM279 453v79l78 79l80 -79v-79l-80 -79zM279 748v132l78 81l80 -81v-132l-80 -78zM387 345l79 79h71l79 -79l-79 -78h-71zM387 639l79 79h71l79 -79 l-79 -78h-71zM565 117v120l81 78l78 -78v-120l-78 -78zM565 453v79l81 79l78 -79v-79l-78 -79zM565 748v132l81 81l78 -81v-132l-78 -78zM674 345l78 79h85l78 -79l-78 -78h-85zM674 639l78 79h85l78 -79l-78 -78h-85z" />
<glyph unicode="$" d="M87 79l79 78h404l79 -78l-79 -79h-404zM87 616v252l79 79l79 -79v-212l-98 -100zM177 528l78 78h335l78 -78l-78 -78h-335zM196 977l79 78h402l79 -78l-79 -80h-402zM326 -35h157v-128l-79 -78l-78 78v128zM326 1090v127l78 78l79 -78v-127h-157zM599 187v212l98 98 l59 -58v-252l-79 -78z" />
<glyph unicode="%" horiz-adv-x="1159" d="M87 745l79 -74l79 74v127l-79 80l-79 -80v-127zM196 638l79 78h82l80 -78l-80 -80h-82zM196 980l79 80h82l80 -80l-80 -78h-82zM243 114l224 390l136 37l20 -81l-322 -560zM387 745v127l79 80l78 -80v-127l-78 -74zM595 726l206 354l214 57l-303 -525l-80 -19zM614 196 l79 -74l79 74v121l-79 78l-79 -78v-121zM723 89l79 79h82l78 -79l-78 -78h-82zM723 424l79 80h82l78 -80l-78 -79h-82zM914 196v121l78 78l79 -78v-121l-79 -74z" />
<glyph unicode="&#x26;" horiz-adv-x="901" d="M87 187v252l60 58l98 -98v-212l-79 -78zM87 616v252l79 79l79 -79v-212l-98 -100zM177 528l78 78h335l78 -78l-78 -78h-335zM196 79l79 78h295l79 -78l-79 -79h-295zM196 977l79 78h295l79 -78l-79 -80h-295zM599 187v212l98 98l59 -58v-252l-79 -78zM599 656v63l78 79 l79 -79v-103l-59 -60zM727 528l78 78l79 -78l-79 -78z" />
<glyph unicode="'" horiz-adv-x="298" d="M71 846v209h157v-209l-79 -80z" />
<glyph unicode="(" horiz-adv-x="520" d="M71 187l78 -78l79 78v212l-98 98l-59 -58v-252zM71 616v252l78 79l79 -79v-212l-98 -100zM178 79l80 78h69l159 -157h-228zM178 977l80 78h228l-159 -158h-69z" />
<glyph unicode=")" horiz-adv-x="520" d="M35 0l158 157h71l79 -78l-79 -79h-229zM35 1055h229l79 -78l-79 -80h-71zM292 187v212l100 98l59 -58v-252l-78 -78zM292 656v212l81 79l78 -79v-252l-59 -60z" />
<glyph unicode="*" horiz-adv-x="806" d="M71 480l29 106l111 63h157l-86 -142l-104 -56zM71 863l107 28l104 -57l86 -141h-157l-111 63zM324 365v121l79 146l80 -140v-127l-80 -78zM324 854v123l79 78l80 -78v-123l-80 -144zM439 656l84 -142l105 -63l108 29l-30 106l-109 70h-158zM439 698l84 140l105 53 l108 -28l-30 -107l-109 -58h-158z" />
<glyph unicode="+" horiz-adv-x="779" d="M71 528l78 78h133l78 -78l-78 -78h-133zM311 287v133l79 77l79 -77v-133l-79 -79zM311 637v133l79 77l79 -77v-133l-79 -81zM420 528l77 78h133l79 -78l-79 -78h-133z" />
<glyph unicode="," horiz-adv-x="298" d="M71 -96v209h157v-209l-79 -79z" />
<glyph unicode="-" horiz-adv-x="779" d="M71 528l78 78h481l79 -78l-79 -78h-481z" />
<glyph unicode="." horiz-adv-x="298" d="M71 0v157h157v-157h-157z" />
<glyph unicode="/" horiz-adv-x="812" d="M36 152l199 340l136 34l21 -80l-297 -509zM364 714l198 341l218 56l-299 -511l-80 -21z" />
<glyph unicode="0" d="M87 30v409l60 58l98 -98v-212zM87 616v409l158 -157v-212l-98 -100zM117 0l158 157h295l157 -157h-610zM117 1055h610l-157 -158h-295zM599 187v212l98 98l59 -58v-409zM599 656v212l157 157v-409l-59 -60z" />
<glyph unicode="1" horiz-adv-x="473" d="M158 187v212l99 98l58 -58v-409zM158 656v212l157 157v-409l-58 -60z" />
<glyph unicode="2" d="M87 30v409l60 58l98 -98v-212zM117 0l158 157h295l157 -157h-610zM117 1055h610l-157 -158h-295zM177 528l78 78h335l78 -78l-78 -78h-335zM599 656v212l157 157v-409l-59 -60z" />
<glyph unicode="3" d="M117 0l158 157h295l157 -157h-610zM117 1055h610l-157 -158h-295zM177 528l78 78h335l78 -78l-78 -78h-335zM599 187v212l98 98l59 -58v-409zM599 656v212l157 157v-409l-59 -60z" />
<glyph unicode="4" d="M87 616v409l158 -157v-212l-98 -100zM177 528l78 78h335l78 -78l-78 -78h-335zM599 187v212l98 98l59 -58v-409zM599 656v212l157 157v-409l-59 -60z" />
<glyph unicode="5" d="M87 616v409l158 -157v-212l-98 -100zM117 0l158 157h295l157 -157h-610zM117 1055h610l-157 -158h-295zM177 528l78 78h335l78 -78l-78 -78h-335zM599 187v212l98 98l59 -58v-409z" />
<glyph unicode="6" d="M87 30v409l60 58l98 -98v-212zM87 616v409l158 -157v-212l-98 -100zM117 0l158 157h295l157 -157h-610zM117 1055h610l-157 -158h-295zM177 528l78 78h335l78 -78l-78 -78h-335zM599 187v212l98 98l59 -58v-409z" />
<glyph unicode="7" d="M117 1055h610l-157 -158h-295zM599 187v212l98 98l59 -58v-409zM599 656v212l157 157v-409l-59 -60z" />
<glyph unicode="8" d="M87 30v409l60 58l98 -98v-212zM87 616v409l158 -157v-212l-98 -100zM117 0l158 157h295l157 -157h-610zM117 1055h610l-157 -158h-295zM177 528l78 78h335l78 -78l-78 -78h-335zM599 187v212l98 98l59 -58v-409zM599 656v212l157 157v-409l-59 -60z" />
<glyph unicode="9" d="M87 616v409l158 -157v-212l-98 -100zM117 0l158 157h295l157 -157h-610zM117 1055h610l-157 -158h-295zM177 528l78 78h335l78 -78l-78 -78h-335zM599 187v212l98 98l59 -58v-409zM599 656v212l157 157v-409l-59 -60z" />
<glyph unicode=":" horiz-adv-x="367" d="M105 0v157h159v-157h-159zM105 723v156h159v-156h-159z" />
<glyph unicode=";" horiz-adv-x="367" d="M105 -96v209h159v-209l-80 -79zM105 723v156h159v-156h-159z" />
<glyph unicode="&#x3c;" horiz-adv-x="590" d="M71 505h221l228 -220v-110h-111zM71 548l338 332h111v-110l-228 -222h-221z" />
<glyph unicode="=" horiz-adv-x="779" d="M71 394l78 78h481l79 -78l-79 -81h-481zM71 662l78 80h481l79 -80l-79 -78h-481z" />
<glyph unicode="&#x3e;" horiz-adv-x="590" d="M71 175v110l226 220h223l-338 -330h-111zM71 770v110h111l338 -332h-223z" />
<glyph unicode="?" d="M87 0v439l60 58l98 -98v-242zM87 -59v-156h158v156h-158zM87 1055h483l79 -78l-79 -80h-325zM177 528l78 78h335l78 -78l-78 -78h-335zM599 656v212l78 79l79 -79v-252l-59 -60z" />
<glyph unicode="@" horiz-adv-x="1020" d="M87 187v252l60 58l98 -98v-212l-79 -78zM87 616v252l79 79l79 -79v-212l-98 -100zM196 79l79 78h605l81 -78l-81 -79h-605zM196 977l79 78h627l-157 -158h-470zM333 439v172l61 59l98 -98v-133l-79 -79zM424 700l78 78h263l78 -78l-78 -79h-263zM443 330l79 80h223 l157 -158h-380zM774 439v133l99 98l59 -59v-329zM774 828v40l158 157v-236l-59 -61z" />
<glyph unicode="A" d="M87 0v439l60 58l98 -98v-242zM87 616v409l158 -157v-212l-98 -100zM117 1055h610l-157 -158h-295zM177 528l78 78h335l78 -78l-78 -78h-335zM599 157v242l98 98l59 -58v-439zM599 656v212l157 157v-409l-59 -60z" />
<glyph unicode="B" d="M87 30v409l60 58l98 -98v-212zM87 616v409l158 -157v-212l-98 -100zM117 0l158 157h295l79 -78l-79 -79h-453zM117 1055h453l79 -78l-79 -80h-295zM177 528l78 78h335l78 -78l-78 -78h-335zM599 187v212l98 98l59 -58v-252l-79 -78zM599 656v212l78 79l79 -79v-252 l-59 -60z" />
<glyph unicode="C" d="M87 187l79 -78l79 78v212l-98 98l-60 -58v-252zM87 616v252l79 79l79 -79v-212l-98 -100zM196 79l79 78h324l157 -157h-481zM196 977l79 78h481l-157 -158h-324z" />
<glyph unicode="D" d="M87 30v409l60 58l98 -98v-212zM87 616v409l158 -157v-212l-98 -100zM117 0l158 157h295l79 -78l-79 -79h-453zM117 1055h453l79 -78l-79 -80h-295zM599 187v212l98 98l59 -58v-252l-79 -78zM599 656v212l78 79l79 -79v-252l-59 -60z" />
<glyph unicode="E" d="M87 30v409l60 58l98 -98v-212zM87 616v409l158 -157v-212l-98 -100zM117 0l158 157h324l157 -157h-639zM117 1055h639l-157 -158h-324zM177 528l78 78h335l78 -78l-78 -78h-335z" />
<glyph unicode="F" d="M87 30v409l60 58l98 -98v-212zM87 616v409l158 -157v-212l-98 -100zM117 1055h639l-157 -158h-324zM177 528l78 78h335l78 -78l-78 -78h-335z" />
<glyph unicode="G" d="M87 187v275l60 58l98 -98v-235l-79 -78zM87 638v230l79 79l79 -79v-191l-98 -98zM196 79l79 -79h295l79 79l-79 78h-295zM196 977l79 78h481l-157 -158h-324zM333 549l78 80h179l78 -80l-78 -78h-179zM599 187v235l98 98l59 -58v-275l-79 -78z" />
<glyph unicode="H" d="M87 0v439l60 58l98 -98v-242zM87 616v439l158 -158v-241l-98 -100zM177 528l78 78h335l78 -78l-78 -78h-335zM599 157v242l98 98l59 -58v-439zM599 656v241l157 158v-439l-59 -60z" />
<glyph unicode="I" horiz-adv-x="473" d="M158 157v242l99 98l58 -58v-439zM158 656v241l157 158v-439l-58 -60z" />
<glyph unicode="J" d="M87 187l79 -78l79 78v142l-98 99l-60 -60v-181zM196 79l79 78h295l79 -78l-79 -79h-295zM599 187v212l98 98l59 -58v-252l-79 -78zM599 656v241l157 158v-439l-59 -60z" />
<glyph unicode="K" d="M87 0v439l60 58l98 -98v-242zM87 616v439l158 -158v-241l-98 -100zM177 528l78 78h335l78 -78l-78 -78h-335zM284 649v112l295 294h112v-112l-296 -294h-111zM599 157v242l98 98l59 -58v-439z" />
<glyph unicode="L" d="M87 30v409l60 58l98 -98v-212zM87 616v439l158 -158v-241l-98 -100zM117 0l158 157h324l157 -157h-639z" />
<glyph unicode="M" d="M87 0v439l60 58l98 -98v-242zM87 616v409l158 -157v-212l-98 -100zM117 1055h610l-157 -158h-295zM348 474v308l80 79l79 -79v-308l-79 -80zM599 157v242l98 98l59 -58v-439zM599 656v212l157 157v-409l-59 -60z" />
<glyph unicode="N" d="M87 0v439l60 58l98 -98v-242zM87 616v439l158 -158v-241l-98 -100zM130 1055h229l203 -215v-113h-111zM599 157v242l98 98l59 -58v-439zM599 656v241l157 158v-439l-59 -60z" />
<glyph unicode="O" d="M87 187l79 -78l79 78v212l-98 98l-60 -58v-252zM87 616v252l79 79l79 -79v-212l-98 -100zM196 79l79 78h295l79 -78l-79 -79h-295zM196 977l79 78h295l79 -78l-79 -80h-295zM599 187v212l98 98l59 -58v-252l-79 -78zM599 656v212l78 79l79 -79v-252l-59 -60z" />
<glyph unicode="P" d="M87 0v439l60 58l98 -98v-242zM87 616v409l158 -157v-212l-98 -100zM117 1055h453l79 -78l-79 -80h-295zM177 528l78 78h335l78 -78l-78 -78h-335zM599 656v212l78 79l79 -79v-252l-59 -60z" />
<glyph unicode="Q" d="M87 187l79 -78l79 78v233l-98 98l-60 -58v-273zM87 638v230l79 79l79 -79v-191l-98 -98zM196 79l79 78h153l79 -78l-79 -79h-153zM196 977l79 78h295l79 -78l-79 -80h-295zM457 187v114h113l186 -188v-113h-112zM599 329v91l98 98l59 -58v-131l-79 -79zM599 677v191 l78 79l79 -79v-230l-59 -59z" />
<glyph unicode="R" d="M87 0v439l60 58l98 -98v-242zM87 616v409l158 -157v-212l-98 -100zM117 1055h453l79 -78l-79 -80h-295zM177 528l78 78h335l78 -78l-78 -78h-335zM315 301v112h113l302 -300v-113h-114zM599 656v212l78 79l79 -79v-252l-59 -60z" />
<glyph unicode="S" d="M87 79l79 78h404l79 -78l-79 -79h-404zM87 616v252l79 79l79 -79v-212l-98 -100zM177 528l78 78h335l78 -78l-78 -78h-335zM196 977l79 78h402l79 -78l-79 -80h-402zM599 187v212l98 98l59 -58v-252l-79 -78z" />
<glyph unicode="T" d="M53 977l78 78h581l79 -78l-79 -80h-581zM343 72v327l99 98l59 -58v-367l-79 -78zM343 656v121l79 78l79 -78v-161l-59 -60z" />
<glyph unicode="U" d="M87 187l79 -78l79 78v212l-98 98l-60 -58v-252zM87 616v439l158 -158v-241l-98 -100zM196 79l79 78h295l79 -78l-79 -79h-295zM599 187v212l98 98l59 -58v-252l-79 -78zM599 656v241l157 158v-439l-59 -60z" />
<glyph unicode="V" horiz-adv-x="809" d="M87 75v380l60 59l98 -99v-340l-79 -80zM87 632v423l158 -158v-225l-98 -99zM294 75v112l279 300l124 27l-11 -138l-280 -301h-112zM599 672v225l157 158v-423l-59 -59z" />
<glyph unicode="W" d="M87 30v409l60 58l98 -98v-212zM87 616v439l158 -158v-241l-98 -100zM117 0l158 157h295l157 -157h-610zM348 271v311l80 80l79 -80v-311l-79 -78zM599 187v212l98 98l59 -58v-409zM599 656v241l157 158v-439l-59 -60z" />
<glyph unicode="X" horiz-adv-x="809" d="M87 0v154l226 343h81v-173l-213 -324h-94zM87 902v153h93l214 -325v-174h-81zM453 326v171h79l224 -343v-154h-91zM453 556v174l212 325h91v-153l-224 -346h-79z" />
<glyph unicode="Y" d="M87 616l60 -60l98 100v241l-158 158v-439zM147 79l77 78h346l79 -78l-79 -79h-346zM177 528l78 78h335l78 -78l-78 -78h-335zM599 187v212l98 98l59 -58v-252l-79 -78zM599 656v241l157 158v-439l-59 -60z" />
<glyph unicode="Z" d="M87 79l79 78h415l156 -157h-571zM87 1055h590l79 -78l-79 -80h-432zM166 193v108l143 212l85 7l17 -137l-127 -190h-118zM406 626l159 235h112v-116l-125 -187l-141 -15z" />
<glyph unicode="[" horiz-adv-x="520" d="M71 30v409l59 58l98 -98v-212zM71 616v409l157 -157v-212l-98 -100zM100 0l158 157h69l159 -157h-386zM100 1055h386l-159 -158h-69z" />
<glyph unicode="\" horiz-adv-x="814" d="M35 1111l215 -56l201 -341l-38 -135l-80 21zM422 446l21 80l136 -34l198 -340l-58 -215z" />
<glyph unicode="]" horiz-adv-x="520" d="M35 0l158 157h71l156 -157h-385zM35 1055h385l-156 -158h-71zM292 187v212l100 98l59 -58v-409zM292 656v212l159 157v-409l-59 -60z" />
<glyph unicode="^" horiz-adv-x="768" d="M71 650v111l293 294v-222l-183 -183h-110zM404 833v222l294 -294v-111h-112z" />
<glyph unicode="_" horiz-adv-x="780" d="M0 -203l79 77h624l78 -77l-78 -79h-624z" />
<glyph unicode="`" horiz-adv-x="400" d="M71 1010l134 80l125 -214l-29 -106l-107 28z" />
<glyph unicode="a" d="M87 0v439l60 58l98 -98v-242zM87 616v409l158 -157v-212l-98 -100zM117 1055h610l-157 -158h-295zM177 528l78 78h335l78 -78l-78 -78h-335zM599 157v242l98 98l59 -58v-439zM599 656v212l157 157v-409l-59 -60z" />
<glyph unicode="b" d="M87 30v409l60 58l98 -98v-212zM87 616v409l158 -157v-212l-98 -100zM117 0l158 157h295l79 -78l-79 -79h-453zM117 1055h453l79 -78l-79 -80h-295zM177 528l78 78h335l78 -78l-78 -78h-335zM599 187v212l98 98l59 -58v-252l-79 -78zM599 656v212l78 79l79 -79v-252 l-59 -60z" />
<glyph unicode="c" d="M87 187l79 -78l79 78v212l-98 98l-60 -58v-252zM87 616v252l79 79l79 -79v-212l-98 -100zM196 79l79 78h324l157 -157h-481zM196 977l79 78h481l-157 -158h-324z" />
<glyph unicode="d" d="M87 30v409l60 58l98 -98v-212zM87 616v409l158 -157v-212l-98 -100zM117 0l158 157h295l79 -78l-79 -79h-453zM117 1055h453l79 -78l-79 -80h-295zM599 187v212l98 98l59 -58v-252l-79 -78zM599 656v212l78 79l79 -79v-252l-59 -60z" />
<glyph unicode="e" d="M87 30v409l60 58l98 -98v-212zM87 616v409l158 -157v-212l-98 -100zM117 0l158 157h324l157 -157h-639zM117 1055h639l-157 -158h-324zM177 528l78 78h335l78 -78l-78 -78h-335z" />
<glyph unicode="f" d="M87 30v409l60 58l98 -98v-212zM87 616v409l158 -157v-212l-98 -100zM117 1055h639l-157 -158h-324zM177 528l78 78h335l78 -78l-78 -78h-335z" />
<glyph unicode="g" d="M87 187v275l60 58l98 -98v-235l-79 -78zM87 638v230l79 79l79 -79v-191l-98 -98zM196 79l79 -79h295l79 79l-79 78h-295zM196 977l79 78h481l-157 -158h-324zM333 549l78 80h179l78 -80l-78 -78h-179zM599 187v235l98 98l59 -58v-275l-79 -78z" />
<glyph unicode="h" d="M87 0v439l60 58l98 -98v-242zM87 616v439l158 -158v-241l-98 -100zM177 528l78 78h335l78 -78l-78 -78h-335zM599 157v242l98 98l59 -58v-439zM599 656v241l157 158v-439l-59 -60z" />
<glyph unicode="i" horiz-adv-x="473" d="M158 157v242l99 98l58 -58v-439zM158 656v241l157 158v-439l-58 -60z" />
<glyph unicode="j" d="M87 187l79 -78l79 78v142l-98 99l-60 -60v-181zM196 79l79 78h295l79 -78l-79 -79h-295zM599 187v212l98 98l59 -58v-252l-79 -78zM599 656v241l157 158v-439l-59 -60z" />
<glyph unicode="k" d="M87 0v439l60 58l98 -98v-242zM87 616v439l158 -158v-241l-98 -100zM177 528l78 78h335l78 -78l-78 -78h-335zM284 649v112l295 294h112v-112l-296 -294h-111zM599 157v242l98 98l59 -58v-439z" />
<glyph unicode="l" d="M87 30v409l60 58l98 -98v-212zM87 616v439l158 -158v-241l-98 -100zM117 0l158 157h324l157 -157h-639z" />
<glyph unicode="m" d="M87 0v439l60 58l98 -98v-242zM87 616v409l158 -157v-212l-98 -100zM117 1055h610l-157 -158h-295zM348 474v308l80 79l79 -79v-308l-79 -80zM599 157v242l98 98l59 -58v-439zM599 656v212l157 157v-409l-59 -60z" />
<glyph unicode="n" d="M87 0v439l60 58l98 -98v-242zM87 616v439l158 -158v-241l-98 -100zM130 1055h229l203 -215v-113h-111zM599 157v242l98 98l59 -58v-439zM599 656v241l157 158v-439l-59 -60z" />
<glyph unicode="o" d="M87 187l79 -78l79 78v212l-98 98l-60 -58v-252zM87 616v252l79 79l79 -79v-212l-98 -100zM196 79l79 78h295l79 -78l-79 -79h-295zM196 977l79 78h295l79 -78l-79 -80h-295zM599 187v212l98 98l59 -58v-252l-79 -78zM599 656v212l78 79l79 -79v-252l-59 -60z" />
<glyph unicode="p" d="M87 0v439l60 58l98 -98v-242zM87 616v409l158 -157v-212l-98 -100zM117 1055h453l79 -78l-79 -80h-295zM177 528l78 78h335l78 -78l-78 -78h-335zM599 656v212l78 79l79 -79v-252l-59 -60z" />
<glyph unicode="q" d="M87 187l79 -78l79 78v233l-98 98l-60 -58v-273zM87 638v230l79 79l79 -79v-191l-98 -98zM196 79l79 78h153l79 -78l-79 -79h-153zM196 977l79 78h295l79 -78l-79 -80h-295zM457 187v114h113l186 -188v-113h-112zM599 329v91l98 98l59 -58v-131l-79 -79zM599 677v191 l78 79l79 -79v-230l-59 -59z" />
<glyph unicode="r" d="M87 0v439l60 58l98 -98v-242zM87 616v409l158 -157v-212l-98 -100zM117 1055h453l79 -78l-79 -80h-295zM177 528l78 78h335l78 -78l-78 -78h-335zM315 301v112h113l302 -300v-113h-114zM599 656v212l78 79l79 -79v-252l-59 -60z" />
<glyph unicode="s" d="M87 79l79 78h404l79 -78l-79 -79h-404zM87 616v252l79 79l79 -79v-212l-98 -100zM177 528l78 78h335l78 -78l-78 -78h-335zM196 977l79 78h402l79 -78l-79 -80h-402zM599 187v212l98 98l59 -58v-252l-79 -78z" />
<glyph unicode="t" d="M53 977l78 78h581l79 -78l-79 -80h-581zM343 72v327l99 98l59 -58v-367l-79 -78zM343 656v121l79 78l79 -78v-161l-59 -60z" />
<glyph unicode="u" d="M87 187l79 -78l79 78v212l-98 98l-60 -58v-252zM87 616v439l158 -158v-241l-98 -100zM196 79l79 78h295l79 -78l-79 -79h-295zM599 187v212l98 98l59 -58v-252l-79 -78zM599 656v241l157 158v-439l-59 -60z" />
<glyph unicode="v" horiz-adv-x="809" d="M87 75v380l60 59l98 -99v-340l-79 -80zM87 632v423l158 -158v-225l-98 -99zM294 75v112l279 300l124 27l-11 -138l-280 -301h-112zM599 672v225l157 158v-423l-59 -59z" />
<glyph unicode="w" d="M87 30v409l60 58l98 -98v-212zM87 616v439l158 -158v-241l-98 -100zM117 0l158 157h295l157 -157h-610zM348 271v311l80 80l79 -80v-311l-79 -78zM599 187v212l98 98l59 -58v-409zM599 656v241l157 158v-439l-59 -60z" />
<glyph unicode="x" horiz-adv-x="809" d="M87 0v154l226 343h81v-173l-213 -324h-94zM87 902v153h93l214 -325v-174h-81zM453 326v171h79l224 -343v-154h-91zM453 556v174l212 325h91v-153l-224 -346h-79z" />
<glyph unicode="y" d="M87 616l60 -60l98 100v241l-158 158v-439zM147 79l77 78h346l79 -78l-79 -79h-346zM177 528l78 78h335l78 -78l-78 -78h-335zM599 187v212l98 98l59 -58v-252l-79 -78zM599 656v241l157 158v-439l-59 -60z" />
<glyph unicode="z" d="M87 79l79 78h415l156 -157h-571zM87 1055h590l79 -78l-79 -80h-432zM166 193v108l143 212l85 7l17 -137l-127 -190h-118zM406 626l159 235h112v-116l-125 -187l-141 -15z" />
<glyph unicode="{" horiz-adv-x="651" d="M35 528l79 78h77l79 -78l-79 -78h-77zM202 187v212l99 98l58 -58v-252l-79 -78zM202 656v212l78 79l79 -79v-252l-58 -60zM309 79l78 78h71l158 -157h-229zM309 977l78 78h229l-158 -158h-71z" />
<glyph unicode="|" horiz-adv-x="523" d="M184 -282v1337h155v-1337h-155z" />
<glyph unicode="}" horiz-adv-x="651" d="M35 0l158 157h71l79 -78l-79 -79h-229zM35 1055h229l79 -78l-79 -80h-71zM292 187v252l61 58l98 -98v-212l-78 -78zM292 616v252l81 79l78 -79v-212l-98 -100zM382 528l78 78h77l79 -78l-79 -78h-77z" />
<glyph unicode="~" horiz-adv-x="702" d="M71 392v143q30 35 63.5 51t70.5 16q61 0 159 -42q60 -26 108 -26q42 0 80 22t80 67v-149q-49 -65 -165 -65q-27 0 -50 3t-46 9.5t-79 33.5q-40 20 -68 20q-34 0 -69 -18t-84 -65z" />
<glyph unicode="&#xad;" horiz-adv-x="779" d="M71 528l78 78h481l79 -78l-79 -78h-481z" />
<glyph unicode="&#x2000;" horiz-adv-x="679" />
<glyph unicode="&#x2001;" horiz-adv-x="1358" />
<glyph unicode="&#x2002;" horiz-adv-x="679" />
<glyph unicode="&#x2003;" horiz-adv-x="1358" />
<glyph unicode="&#x2004;" horiz-adv-x="452" />
<glyph unicode="&#x2005;" horiz-adv-x="339" />
<glyph unicode="&#x2006;" horiz-adv-x="226" />
<glyph unicode="&#x2007;" horiz-adv-x="226" />
<glyph unicode="&#x2008;" horiz-adv-x="169" />
<glyph unicode="&#x2009;" horiz-adv-x="271" />
<glyph unicode="&#x200a;" horiz-adv-x="75" />
<glyph unicode="&#x2010;" horiz-adv-x="779" d="M71 528l78 78h481l79 -78l-79 -78h-481z" />
<glyph unicode="&#x2011;" horiz-adv-x="779" d="M71 528l78 78h481l79 -78l-79 -78h-481z" />
<glyph unicode="&#x2012;" horiz-adv-x="779" d="M71 528l78 78h481l79 -78l-79 -78h-481z" />
<glyph unicode="&#x2013;" horiz-adv-x="773" d="M71 528q0 131 93 224t222 93q133 0 225 -92.5t92 -224.5q0 -131 -92.5 -224t-224.5 -93q-131 0 -223 92t-92 225z" />
<glyph unicode="&#x2014;" horiz-adv-x="801" d="M-3 528l57 56h688l57 -56l-57 -56h-688z" />
<glyph unicode="&#x2019;" horiz-adv-x="298" d="M71 766v211l78 78l79 -78v-211h-157z" />
<glyph unicode="&#x201c;" horiz-adv-x="298" d="M71 846v209h157v-209l-79 -80z" />
<glyph unicode="&#x201d;" horiz-adv-x="512" d="M71 766v211l78 78l79 -78v-211h-157zM284 766v211l80 78l78 -78v-211h-158z" />
<glyph unicode="&#x2022;" horiz-adv-x="512" d="M71 846v209h157v-209l-79 -80zM284 846v209h158v-209l-78 -80z" />
<glyph unicode="&#x202f;" horiz-adv-x="271" />
<glyph unicode="&#x2030;" horiz-adv-x="1680" d="M87 745l79 -74l79 74v127l-79 80l-79 -80v-127zM196 638l79 78h82l80 -78l-80 -80h-82zM196 980l79 80h82l80 -80l-80 -78h-82zM243 114l224 390l136 37l20 -81l-322 -560zM387 745v127l79 80l78 -80v-127l-78 -74zM595 726l206 354l214 57l-303 -525l-80 -19zM614 196 l79 -74l79 74v121l-79 78l-79 -78v-121zM723 89l79 79h82l78 -79l-78 -78h-82zM723 424l79 80h82l78 -80l-78 -79h-82zM914 196v121l78 78l79 -78v-121l-79 -74zM1137 196l79 -74l78 74v121l-78 78l-79 -78v-121zM1246 89l78 79h83l79 -79l-79 -78h-83zM1246 424l78 80h83 l79 -80l-79 -79h-83zM1437 196v121l79 78l78 -78v-121l-78 -74z" />
<glyph unicode="&#x205f;" horiz-adv-x="339" />
<glyph unicode="&#x25fc;" horiz-adv-x="1055" d="M0 0v1055h1055v-1055h-1055z" />
</font>
</defs>
</svg>
